<svg width="479" height="32" viewBox="0 0 479 32" fill="none" xmlns="http://www.w3.org/2000/svg">
<path d="M0 32V0H27.4286C29.1038 0 30.456 0.211921 31.4853 0.635762C32.5348 1.03942 33.3119 1.69536 33.8165 2.6036C34.3412 3.51183 34.6036 4.71271 34.6036 6.20624V13.351C34.6036 14.8445 34.3412 16.0454 33.8165 16.9536C33.3119 17.8417 32.5348 18.4976 31.4853 18.9215C30.456 19.3251 29.1038 19.527 27.4286 19.527H7.3264V32H0ZM24.0681 5.54021H7.3264V14.017H24.0681C25.2791 14.017 26.1369 13.8455 26.6414 13.5024C27.1662 13.1593 27.4286 12.4831 27.4286 11.474V8.05298C27.4286 7.06402 27.1763 6.39798 26.6717 6.05487C26.1873 5.71176 25.3195 5.54021 24.0681 5.54021Z" fill="white"/>
<path d="M52.859 25.9754H77.4115V5.72185H52.859V25.9754ZM45.4115 7.56859C45.4115 5.53012 45.6537 3.97603 46.1381 2.90634C46.6225 1.81646 47.4399 1.0596 48.5904 0.635762C49.7408 0.211921 51.3251 0 53.3434 0H76.8969C78.9152 0 80.4995 0.211921 81.65 0.635762C82.8004 1.0596 83.6178 1.81646 84.1022 2.90634C84.5866 3.97603 84.8288 5.53012 84.8288 7.56859V24.4314C84.8288 26.4699 84.5866 28.0341 84.1022 29.1239C83.6178 30.1936 82.8004 30.9404 81.65 31.3642C80.4995 31.7881 78.9152 32 76.8969 32H53.3434C51.3251 32 49.7408 31.7881 48.5904 31.3642C47.4399 30.9404 46.6225 30.1936 46.1381 29.1239C45.6537 28.0341 45.4115 26.4699 45.4115 24.4314V7.56859Z" fill="white"/>
<path d="M107.08 32L94.7588 0H102.448L110.562 21.4645L119.069 0H124.276L132.935 21.4645L140.685 0H147.345L134.993 32H129.968L121.158 9.86944L112.227 32H107.08Z" fill="white"/>
<path d="M157.911 32V0H190.668V5.44938H165.359V12.5941H180.132V18.0435H165.359V25.9754H190.971V32H157.911Z" fill="white"/>
<path d="M204.715 32V0H232.144C233.819 0 235.171 0.211921 236.201 0.635762C237.25 1.03942 238.027 1.69536 238.532 2.6036C239.056 3.51183 239.319 4.71271 239.319 6.20624V13.7143C239.319 15.9142 238.734 17.4986 237.563 18.4674C236.413 19.4361 234.606 19.9205 232.144 19.9205H227.905L242.679 32H231.992L219.096 19.9205H212.042V32H204.715ZM228.783 5.54021H212.042V14.4409H228.783C229.994 14.4409 230.852 14.2693 231.357 13.9262C231.881 13.5831 232.144 12.907 232.144 11.8978V8.05298C232.144 7.06402 231.892 6.39798 231.387 6.05487C230.903 5.71176 230.035 5.54021 228.783 5.54021Z" fill="white"/>
<path d="M265.779 32L248.31 0H254.062L268.201 26.6717L281.703 0H287.001L270.259 32H265.779Z" fill="white"/>
<path d="M297.355 32V0H302.713V32H297.355Z" fill="white"/>
<path d="M346.641 4.35951H323.996V13.2904H344.159C347.005 13.2904 348.952 13.8152 350.002 14.8647C351.051 15.9142 351.576 17.9022 351.576 20.8288V24.4314C351.576 27.3781 351.062 29.3762 350.032 30.4257C349.003 31.4752 347.045 32 344.159 32H325.48C322.573 32 320.595 31.4752 319.546 30.4257C318.496 29.356 317.972 27.3579 317.972 24.4314V23.5535L322.937 22.403V27.5497H346.763V17.9224H326.66C323.754 17.9224 321.786 17.3977 320.757 16.3482C319.728 15.2785 319.213 13.2804 319.213 10.3538V7.56859C319.213 4.64207 319.728 2.65405 320.757 1.60454C321.786 0.534847 323.754 0 326.66 0H343.705C346.551 0 348.508 0.524756 349.578 1.57427C350.668 2.6036 351.213 4.42006 351.213 7.02365V7.68969L346.641 8.99148V4.35951Z" fill="white"/>
<path d="M367.773 32V0H373.132V32H367.773Z" fill="white"/>
<path d="M394.657 27.5497H421.147V4.35951H394.657V27.5497ZM389.328 7.56859C389.328 4.66225 389.843 2.67424 390.872 1.60454C391.922 0.534847 393.91 0 396.836 0H418.967C421.853 0 423.811 0.534847 424.84 1.60454C425.89 2.65405 426.414 4.64207 426.414 7.56859V24.4314C426.414 27.3781 425.89 29.3762 424.84 30.4257C423.811 31.4752 421.853 32 418.967 32H396.836C393.91 32 391.922 31.4652 390.872 30.3955C389.843 29.3258 389.328 27.3377 389.328 24.4314V7.56859Z" fill="white"/>
<path d="M442.672 32V0H446.032L469.979 21.404C470.524 21.8884 471.099 22.4737 471.705 23.1599C472.331 23.8461 472.966 24.603 473.612 25.4305C473.451 24.4011 473.33 23.3314 473.249 22.2214C473.168 21.0911 473.128 19.5371 473.128 17.5591V0H478.032V32H475.035L450.452 9.74834C450.331 9.64743 450.15 9.48597 449.907 9.26395C448.696 8.17408 447.798 7.13466 447.213 6.1457C447.334 7.11447 447.425 8.15389 447.485 9.26395C447.546 10.3538 447.576 11.6455 447.576 13.1391V32H442.672Z" fill="white"/>
</svg>
